# xmcd
#
# Track frame offsets: 
#        150
#        18224
#        46723
#        67274
#        89864
#        109291
#        129014
#        142716
#        164628
#        187372
#        205252
#
# Disc length: 3057 seconds
#
# Revision: 0
# Processed by: cddbd v1.5.2PL0 Copyright (c) Steve Scherf et al.
# Submitted via: ExactAudioCopy v1.2
#
DISCID=9f0bef0b
DTITLE=Kauffey Temple - Honey Be
DYEAR=2016
DGENRE=Blues
TTITLE0=Honey Be
TTITLE1=Me and John Henry
TTITLE2=Mr. Bojangles
TTITLE3=Dig It
TTITLE4=Crashing Down Blues
TTITLE5=Holy Cow (Live)
TTITLE6=Cheshire Moon (Live)
TTITLE7=Hey Good Lookin' (Live)
TTITLE8=Ya Ya La La (Live)
TTITLE9=Poor Boy (Live)
TTITLE10=Whatcha Gonna Do (Live)
EXTD=
EXTT0=
EXTT1=
EXTT2=
EXTT3=
EXTT4=
EXTT5=
EXTT6=
EXTT7=
EXTT8=
EXTT9=
EXTT10=
PLAYORDER=
